# xmcd
#
# Track frame offsets: 
#        150
#        19022
#        33094
#        49481
#        61206
#        80644
#        99366
#        115304
#        135920
#        150910
#        169420
#
# Disc length: 2520 seconds
#
# Revision: 0
# Processed by: cddbd v1.5.2PL0 Copyright (c) Steve Scherf et al.
# Submitted via: ExactAudioCopyFreeDBPlugin 1.0
#
DISCID=8109d60b
DTITLE=The Travelling Band - The Big Defreeze
DYEAR=2014
DGENRE=Alt. Country/Rock
TTITLE0=Passing Ships
TTITLE1=Garbo
TTITLE2=25 Hours
TTITLE3=Quicksand
TTITLE4=78.8%
TTITLE5=Making Eyes
TTITLE6=Borrowed and Blue
TTITLE7=Sticks and Stones
TTITLE8=For all the Fallen
TTITLE9=Pinholes
TTITLE10=Hands Up
EXTD=
EXTT0=
EXTT1=
EXTT2=
EXTT3=
EXTT4=
EXTT5=
EXTT6=
EXTT7=
EXTT8=
EXTT9=
EXTT10=
PLAYORDER=
